<mxfile host="app.diagrams.net" modified="2024-05-31T12:42:29.457Z" agent="Mozilla/5.0 (X11; Linux x86_64; rv:125.0) Gecko/20100101 Firefox/125.0" etag="iwVQKNOhUd5-yP3VyCfS" version="24.4.9" type="device">
  <diagram name="Страница — 1" id="C_KTBG0YvWXX7qI13WYK">
    <mxGraphModel dx="2535" dy="3460" grid="1" gridSize="10" guides="1" tooltips="1" connect="1" arrows="1" fold="1" page="1" pageScale="1" pageWidth="827" pageHeight="1169" math="0" shadow="0">
      <root>
        <mxCell id="0" />
        <mxCell id="1" parent="0" />
        <mxCell id="_ccRFipnc-8ZUnOI4sxT-1" value="SolvingResult" style="swimlane;fontStyle=1;align=center;verticalAlign=top;childLayout=stackLayout;horizontal=1;startSize=26;horizontalStack=0;resizeParent=1;resizeParentMax=0;resizeLast=0;collapsible=1;marginBottom=0;whiteSpace=wrap;html=1;" parent="1" vertex="1">
          <mxGeometry x="530" y="-1130" width="310" height="140" as="geometry" />
        </mxCell>
        <mxCell id="_ccRFipnc-8ZUnOI4sxT-3" value="" style="line;strokeWidth=1;fillColor=none;align=left;verticalAlign=middle;spacingTop=-1;spacingLeft=3;spacingRight=3;rotatable=0;labelPosition=right;points=[];portConstraint=eastwest;strokeColor=inherit;" parent="_ccRFipnc-8ZUnOI4sxT-1" vertex="1">
          <mxGeometry y="26" width="310" height="8" as="geometry" />
        </mxCell>
        <mxCell id="_ccRFipnc-8ZUnOI4sxT-4" value="&lt;div&gt;+ Successful(vars: Vector):&amp;nbsp;SolvingResult &amp;lt;&amp;lt;static&amp;gt;&amp;gt;&lt;br&gt;&lt;/div&gt;&lt;div&gt;+ Error(): SolvingResult &amp;lt;&amp;lt;static&amp;gt;&amp;gt;&lt;/div&gt;&lt;div&gt;+ GetSuccessfulness(): bool&lt;/div&gt;&lt;div&gt;+ GetVarsValuesRef(): Vector&amp;amp;&lt;/div&gt;&lt;div&gt;+ GetItersCount(): std::size_t&lt;br&gt;&lt;/div&gt;&lt;div&gt;+ SetItersCount(itersCount: std::size_t): SolvingStatus&amp;amp;&lt;/div&gt;" style="text;strokeColor=none;fillColor=none;align=left;verticalAlign=top;spacingLeft=4;spacingRight=4;overflow=hidden;rotatable=0;points=[[0,0.5],[1,0.5]];portConstraint=eastwest;whiteSpace=wrap;html=1;" parent="_ccRFipnc-8ZUnOI4sxT-1" vertex="1">
          <mxGeometry y="34" width="310" height="106" as="geometry" />
        </mxCell>
        <mxCell id="_ccRFipnc-8ZUnOI4sxT-5" value="Vector" style="swimlane;fontStyle=1;align=center;verticalAlign=top;childLayout=stackLayout;horizontal=1;startSize=26;horizontalStack=0;resizeParent=1;resizeParentMax=0;resizeLast=0;collapsible=1;marginBottom=0;whiteSpace=wrap;html=1;" parent="1" vertex="1">
          <mxGeometry x="530" y="-1260" width="310" height="110" as="geometry" />
        </mxCell>
        <mxCell id="_ccRFipnc-8ZUnOI4sxT-6" value="" style="line;strokeWidth=1;fillColor=none;align=left;verticalAlign=middle;spacingTop=-1;spacingLeft=3;spacingRight=3;rotatable=0;labelPosition=right;points=[];portConstraint=eastwest;strokeColor=inherit;" parent="_ccRFipnc-8ZUnOI4sxT-5" vertex="1">
          <mxGeometry y="26" width="310" height="8" as="geometry" />
        </mxCell>
        <mxCell id="_ccRFipnc-8ZUnOI4sxT-7" value="&lt;div&gt;+ Vector()&lt;/div&gt;&lt;div&gt;+ Vector(size: std::size_t)&lt;/div&gt;&lt;div&gt;+ operator [](index: std::size_t): double&amp;amp;&lt;/div&gt;&lt;div&gt;+ Size(): std::size_t&lt;br&gt;&lt;/div&gt;" style="text;strokeColor=none;fillColor=none;align=left;verticalAlign=top;spacingLeft=4;spacingRight=4;overflow=hidden;rotatable=0;points=[[0,0.5],[1,0.5]];portConstraint=eastwest;whiteSpace=wrap;html=1;" parent="_ccRFipnc-8ZUnOI4sxT-5" vertex="1">
          <mxGeometry y="34" width="310" height="76" as="geometry" />
        </mxCell>
        <mxCell id="_ccRFipnc-8ZUnOI4sxT-8" value="Matrix" style="swimlane;fontStyle=1;align=center;verticalAlign=top;childLayout=stackLayout;horizontal=1;startSize=26;horizontalStack=0;resizeParent=1;resizeParentMax=0;resizeLast=0;collapsible=1;marginBottom=0;whiteSpace=wrap;html=1;" parent="1" vertex="1">
          <mxGeometry x="740" y="-1430" width="250" height="150" as="geometry" />
        </mxCell>
        <mxCell id="_ccRFipnc-8ZUnOI4sxT-9" value="" style="line;strokeWidth=1;fillColor=none;align=left;verticalAlign=middle;spacingTop=-1;spacingLeft=3;spacingRight=3;rotatable=0;labelPosition=right;points=[];portConstraint=eastwest;strokeColor=inherit;" parent="_ccRFipnc-8ZUnOI4sxT-8" vertex="1">
          <mxGeometry y="26" width="250" height="8" as="geometry" />
        </mxCell>
        <mxCell id="_ccRFipnc-8ZUnOI4sxT-10" value="&lt;div&gt;+ Matrix()&lt;/div&gt;&lt;div&gt;+&amp;nbsp;Matrix(height: std::size_t, width: std::size_t)&lt;/div&gt;&lt;div&gt;+ At(index: std::size_t): double&amp;amp;&lt;/div&gt;&lt;div&gt;+ Width(): std::size_t&lt;/div&gt;&lt;div&gt;+ Height(): std::size_t&lt;/div&gt;&lt;div&gt;+ TryGetEdgeSize(): std::size_t&lt;/div&gt;&lt;div&gt;+ IsSquare(): bool&lt;/div&gt;" style="text;strokeColor=none;fillColor=none;align=left;verticalAlign=top;spacingLeft=4;spacingRight=4;overflow=hidden;rotatable=0;points=[[0,0.5],[1,0.5]];portConstraint=eastwest;whiteSpace=wrap;html=1;" parent="_ccRFipnc-8ZUnOI4sxT-8" vertex="1">
          <mxGeometry y="34" width="250" height="116" as="geometry" />
        </mxCell>
        <mxCell id="_ccRFipnc-8ZUnOI4sxT-11" value="AllocArray2D&amp;lt;T&amp;gt;" style="swimlane;fontStyle=1;align=center;verticalAlign=top;childLayout=stackLayout;horizontal=1;startSize=26;horizontalStack=0;resizeParent=1;resizeParentMax=0;resizeLast=0;collapsible=1;marginBottom=0;whiteSpace=wrap;html=1;" parent="1" vertex="1">
          <mxGeometry x="1105" y="-1520" width="290" height="120" as="geometry" />
        </mxCell>
        <mxCell id="_ccRFipnc-8ZUnOI4sxT-12" value="" style="line;strokeWidth=1;fillColor=none;align=left;verticalAlign=middle;spacingTop=-1;spacingLeft=3;spacingRight=3;rotatable=0;labelPosition=right;points=[];portConstraint=eastwest;strokeColor=inherit;" parent="_ccRFipnc-8ZUnOI4sxT-11" vertex="1">
          <mxGeometry y="26" width="290" height="8" as="geometry" />
        </mxCell>
        <mxCell id="_ccRFipnc-8ZUnOI4sxT-13" value="&lt;div&gt;+&amp;nbsp;AllocArray2D()&lt;/div&gt;&lt;div&gt;+&amp;nbsp;AllocArray2D(height: std::size_t, width: std::size_t)&lt;/div&gt;&lt;div&gt;+ At(index: std::size_t): T&amp;amp;&lt;/div&gt;&lt;div&gt;+ Width(): std::size_t&lt;/div&gt;&lt;div&gt;+ Height(): std::size_t&lt;/div&gt;" style="text;strokeColor=none;fillColor=none;align=left;verticalAlign=top;spacingLeft=4;spacingRight=4;overflow=hidden;rotatable=0;points=[[0,0.5],[1,0.5]];portConstraint=eastwest;whiteSpace=wrap;html=1;" parent="_ccRFipnc-8ZUnOI4sxT-11" vertex="1">
          <mxGeometry y="34" width="290" height="86" as="geometry" />
        </mxCell>
        <mxCell id="_ccRFipnc-8ZUnOI4sxT-16" value="SLESolver" style="swimlane;fontStyle=1;align=center;verticalAlign=top;childLayout=stackLayout;horizontal=1;startSize=26;horizontalStack=0;resizeParent=1;resizeParentMax=0;resizeLast=0;collapsible=1;marginBottom=0;whiteSpace=wrap;html=1;" parent="1" vertex="1">
          <mxGeometry x="870" y="-1200" width="430" height="180" as="geometry" />
        </mxCell>
        <mxCell id="_ccRFipnc-8ZUnOI4sxT-17" value="" style="line;strokeWidth=1;fillColor=none;align=left;verticalAlign=middle;spacingTop=-1;spacingLeft=3;spacingRight=3;rotatable=0;labelPosition=right;points=[];portConstraint=eastwest;strokeColor=inherit;" parent="_ccRFipnc-8ZUnOI4sxT-16" vertex="1">
          <mxGeometry y="26" width="430" height="8" as="geometry" />
        </mxCell>
        <mxCell id="_ccRFipnc-8ZUnOI4sxT-18" value="&lt;div&gt;&lt;div&gt;- SolveInternally(varsCoeffs: Matrix&amp;amp;&amp;amp;, freeCoeffs: Vector&amp;amp;&amp;amp;): SolvingResult&lt;br&gt;&lt;/div&gt;&lt;/div&gt;&lt;div&gt;+ SLESolver()&lt;br&gt;&lt;/div&gt;&lt;div&gt;+ SetEquationsCount(eqsCount: std::size_t)&lt;br&gt;&lt;/div&gt;&lt;div&gt;&lt;div&gt;+  SetVariablesCoefficients(varsCoeffs: auto&amp;amp;&amp;amp;)&lt;/div&gt;&lt;div&gt;&lt;div&gt;+ SetFreeCoefficients(freeCoeffs: auto&amp;amp;&amp;amp;) &lt;/div&gt;&lt;div&gt;&lt;div&gt;+ Solve()&lt;/div&gt;&lt;div&gt;+ IsSolvedSuccessfully(): std::optional&amp;lt;bool&amp;gt;&lt;/div&gt;&lt;div&gt;+ GetSolveOnce(): std::optional&amp;lt;Vector&amp;gt;&lt;/div&gt;&lt;div&gt;+ GetAlgoItersCount(): std::optional&amp;lt;std::size_t&amp;gt;&lt;/div&gt;&lt;/div&gt;&lt;/div&gt;&lt;/div&gt;" style="text;strokeColor=none;fillColor=none;align=left;verticalAlign=top;spacingLeft=4;spacingRight=4;overflow=hidden;rotatable=0;points=[[0,0.5],[1,0.5]];portConstraint=eastwest;whiteSpace=wrap;html=1;" parent="_ccRFipnc-8ZUnOI4sxT-16" vertex="1">
          <mxGeometry y="34" width="430" height="146" as="geometry" />
        </mxCell>
        <mxCell id="_ccRFipnc-8ZUnOI4sxT-19" value="LUPSolver" style="swimlane;fontStyle=1;align=center;verticalAlign=top;childLayout=stackLayout;horizontal=1;startSize=26;horizontalStack=0;resizeParent=1;resizeParentMax=0;resizeLast=0;collapsible=1;marginBottom=0;whiteSpace=wrap;html=1;" parent="1" vertex="1">
          <mxGeometry x="1350" y="-1020" width="160" height="60" as="geometry" />
        </mxCell>
        <mxCell id="_ccRFipnc-8ZUnOI4sxT-20" value="" style="line;strokeWidth=1;fillColor=none;align=left;verticalAlign=middle;spacingTop=-1;spacingLeft=3;spacingRight=3;rotatable=0;labelPosition=right;points=[];portConstraint=eastwest;strokeColor=inherit;" parent="_ccRFipnc-8ZUnOI4sxT-19" vertex="1">
          <mxGeometry y="26" width="160" height="8" as="geometry" />
        </mxCell>
        <mxCell id="_ccRFipnc-8ZUnOI4sxT-21" value="&amp;nbsp;" style="text;strokeColor=none;fillColor=none;align=left;verticalAlign=top;spacingLeft=4;spacingRight=4;overflow=hidden;rotatable=0;points=[[0,0.5],[1,0.5]];portConstraint=eastwest;whiteSpace=wrap;html=1;" parent="_ccRFipnc-8ZUnOI4sxT-19" vertex="1">
          <mxGeometry y="34" width="160" height="26" as="geometry" />
        </mxCell>
        <mxCell id="_ccRFipnc-8ZUnOI4sxT-22" value="GaussHoletskiySolver" style="swimlane;fontStyle=1;align=center;verticalAlign=top;childLayout=stackLayout;horizontal=1;startSize=26;horizontalStack=0;resizeParent=1;resizeParentMax=0;resizeLast=0;collapsible=1;marginBottom=0;whiteSpace=wrap;html=1;" parent="1" vertex="1">
          <mxGeometry x="1350" y="-1123" width="160" height="60" as="geometry" />
        </mxCell>
        <mxCell id="_ccRFipnc-8ZUnOI4sxT-23" value="" style="line;strokeWidth=1;fillColor=none;align=left;verticalAlign=middle;spacingTop=-1;spacingLeft=3;spacingRight=3;rotatable=0;labelPosition=right;points=[];portConstraint=eastwest;strokeColor=inherit;" parent="_ccRFipnc-8ZUnOI4sxT-22" vertex="1">
          <mxGeometry y="26" width="160" height="8" as="geometry" />
        </mxCell>
        <mxCell id="_ccRFipnc-8ZUnOI4sxT-24" value="&amp;nbsp;" style="text;strokeColor=none;fillColor=none;align=left;verticalAlign=top;spacingLeft=4;spacingRight=4;overflow=hidden;rotatable=0;points=[[0,0.5],[1,0.5]];portConstraint=eastwest;whiteSpace=wrap;html=1;" parent="_ccRFipnc-8ZUnOI4sxT-22" vertex="1">
          <mxGeometry y="34" width="160" height="26" as="geometry" />
        </mxCell>
        <mxCell id="_ccRFipnc-8ZUnOI4sxT-25" value="RotationSolver" style="swimlane;fontStyle=1;align=center;verticalAlign=top;childLayout=stackLayout;horizontal=1;startSize=26;horizontalStack=0;resizeParent=1;resizeParentMax=0;resizeLast=0;collapsible=1;marginBottom=0;whiteSpace=wrap;html=1;" parent="1" vertex="1">
          <mxGeometry x="1350" y="-1230" width="160" height="60" as="geometry" />
        </mxCell>
        <mxCell id="_ccRFipnc-8ZUnOI4sxT-26" value="" style="line;strokeWidth=1;fillColor=none;align=left;verticalAlign=middle;spacingTop=-1;spacingLeft=3;spacingRight=3;rotatable=0;labelPosition=right;points=[];portConstraint=eastwest;strokeColor=inherit;" parent="_ccRFipnc-8ZUnOI4sxT-25" vertex="1">
          <mxGeometry y="26" width="160" height="8" as="geometry" />
        </mxCell>
        <mxCell id="_ccRFipnc-8ZUnOI4sxT-27" value="&amp;nbsp;" style="text;strokeColor=none;fillColor=none;align=left;verticalAlign=top;spacingLeft=4;spacingRight=4;overflow=hidden;rotatable=0;points=[[0,0.5],[1,0.5]];portConstraint=eastwest;whiteSpace=wrap;html=1;" parent="_ccRFipnc-8ZUnOI4sxT-25" vertex="1">
          <mxGeometry y="34" width="160" height="26" as="geometry" />
        </mxCell>
        <mxCell id="_ccRFipnc-8ZUnOI4sxT-28" value="" style="endArrow=block;endSize=16;endFill=0;html=1;rounded=0;" parent="1" source="_ccRFipnc-8ZUnOI4sxT-19" target="_ccRFipnc-8ZUnOI4sxT-18" edge="1">
          <mxGeometry width="160" relative="1" as="geometry">
            <mxPoint x="959.9953164556962" y="-980" as="sourcePoint" />
            <mxPoint x="1046.3877215189873" y="-1050" as="targetPoint" />
          </mxGeometry>
        </mxCell>
        <mxCell id="_ccRFipnc-8ZUnOI4sxT-29" value="" style="endArrow=block;endSize=16;endFill=0;html=1;rounded=0;" parent="1" source="_ccRFipnc-8ZUnOI4sxT-22" target="_ccRFipnc-8ZUnOI4sxT-18" edge="1">
          <mxGeometry width="160" relative="1" as="geometry">
            <mxPoint x="967" y="-970" as="sourcePoint" />
            <mxPoint x="1053" y="-1040" as="targetPoint" />
          </mxGeometry>
        </mxCell>
        <mxCell id="_ccRFipnc-8ZUnOI4sxT-30" value="" style="endArrow=block;endSize=16;endFill=0;html=1;rounded=0;" parent="1" source="_ccRFipnc-8ZUnOI4sxT-25" target="_ccRFipnc-8ZUnOI4sxT-16" edge="1">
          <mxGeometry width="160" relative="1" as="geometry">
            <mxPoint x="967" y="-970" as="sourcePoint" />
            <mxPoint x="1053" y="-1040" as="targetPoint" />
          </mxGeometry>
        </mxCell>
        <mxCell id="_ccRFipnc-8ZUnOI4sxT-31" value="" style="endArrow=open;endFill=1;endSize=12;html=1;rounded=0;" parent="1" source="_ccRFipnc-8ZUnOI4sxT-25" target="_ccRFipnc-8ZUnOI4sxT-13" edge="1">
          <mxGeometry width="160" relative="1" as="geometry">
            <mxPoint x="930" y="-1230" as="sourcePoint" />
            <mxPoint x="1090" y="-1230" as="targetPoint" />
          </mxGeometry>
        </mxCell>
        <mxCell id="_ccRFipnc-8ZUnOI4sxT-32" value="" style="endArrow=open;endFill=1;endSize=12;html=1;rounded=0;" parent="1" source="_ccRFipnc-8ZUnOI4sxT-18" target="_ccRFipnc-8ZUnOI4sxT-1" edge="1">
          <mxGeometry width="160" relative="1" as="geometry">
            <mxPoint x="760" y="-1120" as="sourcePoint" />
            <mxPoint x="920" y="-1120" as="targetPoint" />
          </mxGeometry>
        </mxCell>
        <mxCell id="_ccRFipnc-8ZUnOI4sxT-33" value="" style="endArrow=open;endFill=1;endSize=12;html=1;rounded=0;" parent="1" source="_ccRFipnc-8ZUnOI4sxT-18" target="_ccRFipnc-8ZUnOI4sxT-5" edge="1">
          <mxGeometry width="160" relative="1" as="geometry">
            <mxPoint x="700" y="-1030" as="sourcePoint" />
            <mxPoint x="860" y="-1030" as="targetPoint" />
          </mxGeometry>
        </mxCell>
        <mxCell id="_ccRFipnc-8ZUnOI4sxT-34" value="" style="endArrow=open;endFill=1;endSize=12;html=1;rounded=0;" parent="1" source="_ccRFipnc-8ZUnOI4sxT-16" target="_ccRFipnc-8ZUnOI4sxT-8" edge="1">
          <mxGeometry width="160" relative="1" as="geometry">
            <mxPoint x="730" y="-1220" as="sourcePoint" />
            <mxPoint x="890" y="-1220" as="targetPoint" />
          </mxGeometry>
        </mxCell>
        <mxCell id="_ccRFipnc-8ZUnOI4sxT-36" value="" style="endArrow=open;endFill=1;endSize=12;html=1;rounded=0;" parent="1" source="_ccRFipnc-8ZUnOI4sxT-1" target="_ccRFipnc-8ZUnOI4sxT-5" edge="1">
          <mxGeometry width="160" relative="1" as="geometry">
            <mxPoint x="420" y="-990" as="sourcePoint" />
            <mxPoint x="510" y="-1090" as="targetPoint" />
          </mxGeometry>
        </mxCell>
        <mxCell id="_ccRFipnc-8ZUnOI4sxT-37" value="GUISession" style="swimlane;fontStyle=1;align=center;verticalAlign=top;childLayout=stackLayout;horizontal=1;startSize=26;horizontalStack=0;resizeParent=1;resizeParentMax=0;resizeLast=0;collapsible=1;marginBottom=0;whiteSpace=wrap;html=1;" parent="1" vertex="1">
          <mxGeometry x="60" y="-624" width="240" height="80" as="geometry" />
        </mxCell>
        <mxCell id="_ccRFipnc-8ZUnOI4sxT-38" value="" style="line;strokeWidth=1;fillColor=none;align=left;verticalAlign=middle;spacingTop=-1;spacingLeft=3;spacingRight=3;rotatable=0;labelPosition=right;points=[];portConstraint=eastwest;strokeColor=inherit;" parent="_ccRFipnc-8ZUnOI4sxT-37" vertex="1">
          <mxGeometry y="26" width="240" height="8" as="geometry" />
        </mxCell>
        <mxCell id="_ccRFipnc-8ZUnOI4sxT-39" value="&lt;div&gt;+ Init()&lt;/div&gt;&lt;div&gt;+ GetWindowRef(): ApplicationWindow&amp;amp;&lt;br&gt;&lt;/div&gt;" style="text;strokeColor=none;fillColor=none;align=left;verticalAlign=top;spacingLeft=4;spacingRight=4;overflow=hidden;rotatable=0;points=[[0,0.5],[1,0.5]];portConstraint=eastwest;whiteSpace=wrap;html=1;" parent="_ccRFipnc-8ZUnOI4sxT-37" vertex="1">
          <mxGeometry y="34" width="240" height="46" as="geometry" />
        </mxCell>
        <mxCell id="_ccRFipnc-8ZUnOI4sxT-46" value="ApplicationData" style="swimlane;fontStyle=1;align=center;verticalAlign=top;childLayout=stackLayout;horizontal=1;startSize=26;horizontalStack=0;resizeParent=1;resizeParentMax=0;resizeLast=0;collapsible=1;marginBottom=0;whiteSpace=wrap;html=1;" parent="1" vertex="1">
          <mxGeometry x="580" y="-635" width="480" height="100" as="geometry" />
        </mxCell>
        <mxCell id="_ccRFipnc-8ZUnOI4sxT-48" value="" style="line;strokeWidth=1;fillColor=none;align=left;verticalAlign=middle;spacingTop=-1;spacingLeft=3;spacingRight=3;rotatable=0;labelPosition=right;points=[];portConstraint=eastwest;strokeColor=inherit;" parent="_ccRFipnc-8ZUnOI4sxT-46" vertex="1">
          <mxGeometry y="26" width="480" height="8" as="geometry" />
        </mxCell>
        <mxCell id="_ccRFipnc-8ZUnOI4sxT-49" value="+ ApplicationData()&lt;br&gt;&lt;div&gt;+ GetSLEInputData(): std::weak_ptr&amp;lt;LSEInputData&amp;gt;&lt;/div&gt;+ GetSLEOutputData(): std::weak_ptr&amp;lt;LSESolveData&amp;gt;" style="text;strokeColor=none;fillColor=none;align=left;verticalAlign=top;spacingLeft=4;spacingRight=4;overflow=hidden;rotatable=0;points=[[0,0.5],[1,0.5]];portConstraint=eastwest;whiteSpace=wrap;html=1;" parent="_ccRFipnc-8ZUnOI4sxT-46" vertex="1">
          <mxGeometry y="34" width="480" height="66" as="geometry" />
        </mxCell>
        <mxCell id="_ccRFipnc-8ZUnOI4sxT-50" value="SLEConfigurator" style="swimlane;fontStyle=1;align=center;verticalAlign=top;childLayout=stackLayout;horizontal=1;startSize=26;horizontalStack=0;resizeParent=1;resizeParentMax=0;resizeLast=0;collapsible=1;marginBottom=0;whiteSpace=wrap;html=1;" parent="1" vertex="1">
          <mxGeometry x="680" y="-490" width="380" height="66" as="geometry" />
        </mxCell>
        <mxCell id="_ccRFipnc-8ZUnOI4sxT-52" value="" style="line;strokeWidth=1;fillColor=none;align=left;verticalAlign=middle;spacingTop=-1;spacingLeft=3;spacingRight=3;rotatable=0;labelPosition=right;points=[];portConstraint=eastwest;strokeColor=inherit;" parent="_ccRFipnc-8ZUnOI4sxT-50" vertex="1">
          <mxGeometry y="26" width="380" height="8" as="geometry" />
        </mxCell>
        <mxCell id="_ccRFipnc-8ZUnOI4sxT-53" value="SetSLEInputData(sleInputData: std::weak_ptr&amp;lt;SLEInputData&amp;gt;)" style="text;strokeColor=none;fillColor=none;align=left;verticalAlign=top;spacingLeft=4;spacingRight=4;overflow=hidden;rotatable=0;points=[[0,0.5],[1,0.5]];portConstraint=eastwest;whiteSpace=wrap;html=1;" parent="_ccRFipnc-8ZUnOI4sxT-50" vertex="1">
          <mxGeometry y="34" width="380" height="32" as="geometry" />
        </mxCell>
        <mxCell id="_ccRFipnc-8ZUnOI4sxT-54" value="LSESolveShower" style="swimlane;fontStyle=1;align=center;verticalAlign=top;childLayout=stackLayout;horizontal=1;startSize=26;horizontalStack=0;resizeParent=1;resizeParentMax=0;resizeLast=0;collapsible=1;marginBottom=0;whiteSpace=wrap;html=1;" parent="1" vertex="1">
          <mxGeometry x="740" y="-376" width="400" height="106" as="geometry" />
        </mxCell>
        <mxCell id="_ccRFipnc-8ZUnOI4sxT-56" value="" style="line;strokeWidth=1;fillColor=none;align=left;verticalAlign=middle;spacingTop=-1;spacingLeft=3;spacingRight=3;rotatable=0;labelPosition=right;points=[];portConstraint=eastwest;strokeColor=inherit;" parent="_ccRFipnc-8ZUnOI4sxT-54" vertex="1">
          <mxGeometry y="26" width="400" height="8" as="geometry" />
        </mxCell>
        <mxCell id="_ccRFipnc-8ZUnOI4sxT-57" value="&lt;div&gt;+ SetSLESolveData(sleInputData: std::weak_ptr&amp;lt;SLEInputData&amp;gt;)&lt;/div&gt;&lt;div&gt;+ SetSLEOutputData(sleSolveData: std::weak_ptr&amp;lt;SLESolveData&amp;gt;)&lt;/div&gt;&lt;div&gt;+ OutputSolve()&lt;/div&gt;&lt;div&gt;+ ClearSolve()&lt;/div&gt;" style="text;strokeColor=none;fillColor=none;align=left;verticalAlign=top;spacingLeft=4;spacingRight=4;overflow=hidden;rotatable=0;points=[[0,0.5],[1,0.5]];portConstraint=eastwest;whiteSpace=wrap;html=1;" parent="_ccRFipnc-8ZUnOI4sxT-54" vertex="1">
          <mxGeometry y="34" width="400" height="72" as="geometry" />
        </mxCell>
        <mxCell id="_ccRFipnc-8ZUnOI4sxT-58" value="LSESolvePanel" style="swimlane;fontStyle=1;align=center;verticalAlign=top;childLayout=stackLayout;horizontal=1;startSize=26;horizontalStack=0;resizeParent=1;resizeParentMax=0;resizeLast=0;collapsible=1;marginBottom=0;whiteSpace=wrap;html=1;" parent="1" vertex="1">
          <mxGeometry x="800" y="-225" width="480" height="106" as="geometry" />
        </mxCell>
        <mxCell id="_ccRFipnc-8ZUnOI4sxT-60" value="" style="line;strokeWidth=1;fillColor=none;align=left;verticalAlign=middle;spacingTop=-1;spacingLeft=3;spacingRight=3;rotatable=0;labelPosition=right;points=[];portConstraint=eastwest;strokeColor=inherit;" parent="_ccRFipnc-8ZUnOI4sxT-58" vertex="1">
          <mxGeometry y="26" width="480" height="8" as="geometry" />
        </mxCell>
        <mxCell id="_ccRFipnc-8ZUnOI4sxT-61" value="+ SetLSEInputData(sleInputData: std::weak_ptr&amp;lt;SLEInputData&amp;gt;)&lt;br&gt;+ SetLSESolveData(sleSolveData: std::weak_ptr&amp;lt;SLESolveData&amp;gt;)&lt;br&gt;+ SetLSESolveOutput(sleSolveOutput: std::weak_ptr&amp;lt;SLESolveOutput&amp;gt;)" style="text;strokeColor=none;fillColor=none;align=left;verticalAlign=top;spacingLeft=4;spacingRight=4;overflow=hidden;rotatable=0;points=[[0,0.5],[1,0.5]];portConstraint=eastwest;whiteSpace=wrap;html=1;" parent="_ccRFipnc-8ZUnOI4sxT-58" vertex="1">
          <mxGeometry y="34" width="480" height="72" as="geometry" />
        </mxCell>
        <mxCell id="_ccRFipnc-8ZUnOI4sxT-62" value="ApplicationWindow" style="swimlane;fontStyle=1;align=center;verticalAlign=top;childLayout=stackLayout;horizontal=1;startSize=26;horizontalStack=0;resizeParent=1;resizeParentMax=0;resizeLast=0;collapsible=1;marginBottom=0;whiteSpace=wrap;html=1;" parent="1" vertex="1">
          <mxGeometry x="20" y="-366" width="320" height="96" as="geometry" />
        </mxCell>
        <mxCell id="_ccRFipnc-8ZUnOI4sxT-64" value="" style="line;strokeWidth=1;fillColor=none;align=left;verticalAlign=middle;spacingTop=-1;spacingLeft=3;spacingRight=3;rotatable=0;labelPosition=right;points=[];portConstraint=eastwest;strokeColor=inherit;" parent="_ccRFipnc-8ZUnOI4sxT-62" vertex="1">
          <mxGeometry y="26" width="320" height="8" as="geometry" />
        </mxCell>
        <mxCell id="_ccRFipnc-8ZUnOI4sxT-65" value="+ SetApplicationData(appData: std::weak_ptr&amp;lt;ApplicationData&amp;gt;)&lt;br&gt;+ Ready()" style="text;strokeColor=none;fillColor=none;align=left;verticalAlign=top;spacingLeft=4;spacingRight=4;overflow=hidden;rotatable=0;points=[[0,0.5],[1,0.5]];portConstraint=eastwest;whiteSpace=wrap;html=1;" parent="_ccRFipnc-8ZUnOI4sxT-62" vertex="1">
          <mxGeometry y="34" width="320" height="62" as="geometry" />
        </mxCell>
        <mxCell id="_ccRFipnc-8ZUnOI4sxT-66" value="&lt;b&gt;Gtk::Frame&lt;/b&gt;" style="swimlane;fontStyle=0;childLayout=stackLayout;horizontal=1;startSize=26;fillColor=none;horizontalStack=0;resizeParent=1;resizeParentMax=0;resizeLast=0;collapsible=1;marginBottom=0;whiteSpace=wrap;html=1;" parent="1" vertex="1">
          <mxGeometry x="360" y="-185" width="200" height="80" as="geometry" />
        </mxCell>
        <mxCell id="_ccRFipnc-8ZUnOI4sxT-67" value="&lt;b&gt;Gtk::Window&lt;/b&gt;" style="swimlane;fontStyle=0;childLayout=stackLayout;horizontal=1;startSize=26;fillColor=none;horizontalStack=0;resizeParent=1;resizeParentMax=0;resizeLast=0;collapsible=1;marginBottom=0;whiteSpace=wrap;html=1;" parent="1" vertex="1">
          <mxGeometry x="80" y="-185" width="200" height="80" as="geometry" />
        </mxCell>
        <mxCell id="_ccRFipnc-8ZUnOI4sxT-68" value="" style="endArrow=diamondThin;endFill=1;endSize=24;html=1;rounded=0;" parent="1" source="_ccRFipnc-8ZUnOI4sxT-50" target="_ccRFipnc-8ZUnOI4sxT-62" edge="1">
          <mxGeometry width="160" relative="1" as="geometry">
            <mxPoint x="490" y="-325" as="sourcePoint" />
            <mxPoint x="630" y="-465" as="targetPoint" />
          </mxGeometry>
        </mxCell>
        <mxCell id="_ccRFipnc-8ZUnOI4sxT-69" value="" style="endArrow=diamondThin;endFill=1;endSize=24;html=1;rounded=0;" parent="1" source="_ccRFipnc-8ZUnOI4sxT-54" target="_ccRFipnc-8ZUnOI4sxT-62" edge="1">
          <mxGeometry width="160" relative="1" as="geometry">
            <mxPoint x="752" y="-396" as="sourcePoint" />
            <mxPoint x="647" y="-366" as="targetPoint" />
          </mxGeometry>
        </mxCell>
        <mxCell id="_ccRFipnc-8ZUnOI4sxT-70" value="" style="endArrow=diamondThin;endFill=1;endSize=24;html=1;rounded=0;" parent="1" source="_ccRFipnc-8ZUnOI4sxT-58" target="_ccRFipnc-8ZUnOI4sxT-62" edge="1">
          <mxGeometry width="160" relative="1" as="geometry">
            <mxPoint x="730" y="-308" as="sourcePoint" />
            <mxPoint x="651" y="-310" as="targetPoint" />
          </mxGeometry>
        </mxCell>
        <mxCell id="_ccRFipnc-8ZUnOI4sxT-71" value="" style="endArrow=block;endSize=16;endFill=0;html=1;rounded=0;" parent="1" source="_ccRFipnc-8ZUnOI4sxT-62" target="_ccRFipnc-8ZUnOI4sxT-67" edge="1">
          <mxGeometry width="160" relative="1" as="geometry">
            <mxPoint x="160" y="-225" as="sourcePoint" />
            <mxPoint x="320" y="-225" as="targetPoint" />
          </mxGeometry>
        </mxCell>
        <mxCell id="_ccRFipnc-8ZUnOI4sxT-72" value="" style="endArrow=block;endSize=16;endFill=0;html=1;rounded=0;" parent="1" source="_ccRFipnc-8ZUnOI4sxT-54" target="_ccRFipnc-8ZUnOI4sxT-66" edge="1">
          <mxGeometry width="160" relative="1" as="geometry">
            <mxPoint x="1130" y="-365" as="sourcePoint" />
            <mxPoint x="1370" y="-175" as="targetPoint" />
          </mxGeometry>
        </mxCell>
        <mxCell id="_ccRFipnc-8ZUnOI4sxT-73" value="" style="endArrow=block;endSize=16;endFill=0;html=1;rounded=0;" parent="1" source="_ccRFipnc-8ZUnOI4sxT-58" target="_ccRFipnc-8ZUnOI4sxT-66" edge="1">
          <mxGeometry width="160" relative="1" as="geometry">
            <mxPoint x="1220" y="-165" as="sourcePoint" />
            <mxPoint x="1380" y="-165" as="targetPoint" />
          </mxGeometry>
        </mxCell>
        <mxCell id="_ccRFipnc-8ZUnOI4sxT-74" value="" style="endArrow=block;endSize=16;endFill=0;html=1;rounded=0;" parent="1" source="_ccRFipnc-8ZUnOI4sxT-50" target="_ccRFipnc-8ZUnOI4sxT-66" edge="1">
          <mxGeometry width="160" relative="1" as="geometry">
            <mxPoint x="1140" y="-440.3399999999999" as="sourcePoint" />
            <mxPoint x="1300" y="-440.3399999999999" as="targetPoint" />
            <Array as="points">
              <mxPoint x="510" y="-340" />
            </Array>
          </mxGeometry>
        </mxCell>
        <mxCell id="_ccRFipnc-8ZUnOI4sxT-75" value="" style="endArrow=diamondThin;endFill=0;endSize=24;html=1;rounded=0;" parent="1" source="_ccRFipnc-8ZUnOI4sxT-46" target="_ccRFipnc-8ZUnOI4sxT-62" edge="1">
          <mxGeometry width="160" relative="1" as="geometry">
            <mxPoint x="510" y="-445" as="sourcePoint" />
            <mxPoint x="670" y="-445" as="targetPoint" />
          </mxGeometry>
        </mxCell>
        <mxCell id="_ccRFipnc-8ZUnOI4sxT-84" value="" style="endArrow=diamondThin;endFill=1;endSize=24;html=1;rounded=0;" parent="1" source="_ccRFipnc-8ZUnOI4sxT-46" target="_ccRFipnc-8ZUnOI4sxT-37" edge="1">
          <mxGeometry width="160" relative="1" as="geometry">
            <mxPoint x="690" y="-385" as="sourcePoint" />
            <mxPoint x="490" y="-338" as="targetPoint" />
          </mxGeometry>
        </mxCell>
        <mxCell id="_ccRFipnc-8ZUnOI4sxT-85" value="" style="endArrow=diamondThin;endFill=1;endSize=24;html=1;rounded=0;" parent="1" source="_ccRFipnc-8ZUnOI4sxT-62" target="_ccRFipnc-8ZUnOI4sxT-37" edge="1">
          <mxGeometry width="160" relative="1" as="geometry">
            <mxPoint x="590" y="-575" as="sourcePoint" />
            <mxPoint x="477" y="-580" as="targetPoint" />
          </mxGeometry>
        </mxCell>
        <mxCell id="_ccRFipnc-8ZUnOI4sxT-86" value="IterationsCounter" style="swimlane;fontStyle=1;align=center;verticalAlign=top;childLayout=stackLayout;horizontal=1;startSize=26;horizontalStack=0;resizeParent=1;resizeParentMax=0;resizeLast=0;collapsible=1;marginBottom=0;whiteSpace=wrap;html=1;" parent="1" vertex="1">
          <mxGeometry x="1590" y="-1130" width="250" height="80" as="geometry" />
        </mxCell>
        <mxCell id="_ccRFipnc-8ZUnOI4sxT-87" value="" style="line;strokeWidth=1;fillColor=none;align=left;verticalAlign=middle;spacingTop=-1;spacingLeft=3;spacingRight=3;rotatable=0;labelPosition=right;points=[];portConstraint=eastwest;strokeColor=inherit;" parent="_ccRFipnc-8ZUnOI4sxT-86" vertex="1">
          <mxGeometry y="26" width="250" height="8" as="geometry" />
        </mxCell>
        <mxCell id="_ccRFipnc-8ZUnOI4sxT-88" value="&lt;div&gt;+ AddNew()&lt;/div&gt;&lt;div&gt;+ GetTotalCount()&lt;br&gt;&lt;/div&gt;" style="text;strokeColor=none;fillColor=none;align=left;verticalAlign=top;spacingLeft=4;spacingRight=4;overflow=hidden;rotatable=0;points=[[0,0.5],[1,0.5]];portConstraint=eastwest;whiteSpace=wrap;html=1;" parent="_ccRFipnc-8ZUnOI4sxT-86" vertex="1">
          <mxGeometry y="34" width="250" height="46" as="geometry" />
        </mxCell>
        <mxCell id="_ccRFipnc-8ZUnOI4sxT-90" value="" style="endArrow=open;endFill=1;endSize=12;html=1;rounded=0;" parent="1" source="_ccRFipnc-8ZUnOI4sxT-25" target="_ccRFipnc-8ZUnOI4sxT-86" edge="1">
          <mxGeometry width="160" relative="1" as="geometry">
            <mxPoint x="1418" y="-1220" as="sourcePoint" />
            <mxPoint x="1650" y="-1210" as="targetPoint" />
          </mxGeometry>
        </mxCell>
        <mxCell id="_ccRFipnc-8ZUnOI4sxT-91" value="" style="endArrow=open;endFill=1;endSize=12;html=1;rounded=0;" parent="1" source="_ccRFipnc-8ZUnOI4sxT-22" target="_ccRFipnc-8ZUnOI4sxT-86" edge="1">
          <mxGeometry width="160" relative="1" as="geometry">
            <mxPoint x="1480" y="-1040" as="sourcePoint" />
            <mxPoint x="1518" y="-1160" as="targetPoint" />
          </mxGeometry>
        </mxCell>
        <mxCell id="_ccRFipnc-8ZUnOI4sxT-92" value="" style="endArrow=open;endFill=1;endSize=12;html=1;rounded=0;" parent="1" source="_ccRFipnc-8ZUnOI4sxT-19" target="_ccRFipnc-8ZUnOI4sxT-86" edge="1">
          <mxGeometry width="160" relative="1" as="geometry">
            <mxPoint x="1600" y="-1081" as="sourcePoint" />
            <mxPoint x="1620" y="-980" as="targetPoint" />
          </mxGeometry>
        </mxCell>
        <mxCell id="_ccRFipnc-8ZUnOI4sxT-93" value="&lt;div&gt;&lt;i&gt;&amp;lt;&amp;lt;enumeration&amp;gt;&amp;gt;&lt;/i&gt;&lt;br&gt;&lt;/div&gt;&lt;div&gt;&lt;b&gt;SLESolvingMethodIndex&lt;/b&gt;&lt;/div&gt;" style="swimlane;fontStyle=0;childLayout=stackLayout;horizontal=1;startSize=50;fillColor=none;horizontalStack=0;resizeParent=1;resizeParentMax=0;resizeLast=0;collapsible=1;marginBottom=0;whiteSpace=wrap;html=1;" parent="1" vertex="1">
          <mxGeometry x="1350" y="-920" width="170" height="120" as="geometry">
            <mxRectangle x="400" y="40" width="130" height="50" as="alternateBounds" />
          </mxGeometry>
        </mxCell>
        <mxCell id="_ccRFipnc-8ZUnOI4sxT-94" value="LUP&lt;br&gt;GaussHoletskiy&lt;br&gt;Rotation" style="text;strokeColor=none;fillColor=none;align=left;verticalAlign=top;spacingLeft=4;spacingRight=4;overflow=hidden;rotatable=0;points=[[0,0.5],[1,0.5]];portConstraint=eastwest;whiteSpace=wrap;html=1;" parent="_ccRFipnc-8ZUnOI4sxT-93" vertex="1">
          <mxGeometry y="50" width="170" height="70" as="geometry" />
        </mxCell>
        <mxCell id="_ccRFipnc-8ZUnOI4sxT-96" value="ComboBoxMethodRecord" style="swimlane;fontStyle=1;align=center;verticalAlign=top;childLayout=stackLayout;horizontal=1;startSize=26;horizontalStack=0;resizeParent=1;resizeParentMax=0;resizeLast=0;collapsible=1;marginBottom=0;whiteSpace=wrap;html=1;" parent="1" vertex="1">
          <mxGeometry x="1560" y="-920" width="420" height="110" as="geometry" />
        </mxCell>
        <mxCell id="_ccRFipnc-8ZUnOI4sxT-97" value="" style="line;strokeWidth=1;fillColor=none;align=left;verticalAlign=middle;spacingTop=-1;spacingLeft=3;spacingRight=3;rotatable=0;labelPosition=right;points=[];portConstraint=eastwest;strokeColor=inherit;" parent="_ccRFipnc-8ZUnOI4sxT-96" vertex="1">
          <mxGeometry y="26" width="420" height="8" as="geometry" />
        </mxCell>
        <mxCell id="_ccRFipnc-8ZUnOI4sxT-98" value="&lt;div&gt;+ ComboBoxMethodRecord(solvingMethodIndex: SLESolvingMethodIndex)&lt;/div&gt;&lt;div&gt;+ GetSolvingMethodIndex(): SLESolvingMethodIndex&lt;br&gt;&lt;/div&gt;&lt;div&gt;+ GetMethodName(): const std::string&amp;amp;&lt;/div&gt;&lt;div&gt;+ GetMethodPracticalItersComplexity(): const std::string&amp;amp;&lt;br&gt;&lt;/div&gt;" style="text;strokeColor=none;fillColor=none;align=left;verticalAlign=top;spacingLeft=4;spacingRight=4;overflow=hidden;rotatable=0;points=[[0,0.5],[1,0.5]];portConstraint=eastwest;whiteSpace=wrap;html=1;" parent="_ccRFipnc-8ZUnOI4sxT-96" vertex="1">
          <mxGeometry y="34" width="420" height="76" as="geometry" />
        </mxCell>
        <mxCell id="_ccRFipnc-8ZUnOI4sxT-99" value="" style="endArrow=open;endFill=1;endSize=12;html=1;rounded=0;" parent="1" source="_ccRFipnc-8ZUnOI4sxT-96" target="_ccRFipnc-8ZUnOI4sxT-93" edge="1">
          <mxGeometry width="160" relative="1" as="geometry">
            <mxPoint x="1611" y="-1040" as="sourcePoint" />
            <mxPoint x="1500" y="-700" as="targetPoint" />
          </mxGeometry>
        </mxCell>
        <mxCell id="_ccRFipnc-8ZUnOI4sxT-100" value="SLEInputData" style="swimlane;fontStyle=1;align=center;verticalAlign=top;childLayout=stackLayout;horizontal=1;startSize=26;horizontalStack=0;resizeParent=1;resizeParentMax=0;resizeLast=0;collapsible=1;marginBottom=0;whiteSpace=wrap;html=1;" parent="1" vertex="1">
          <mxGeometry x="1450" y="-760" width="320" height="300" as="geometry" />
        </mxCell>
        <mxCell id="_ccRFipnc-8ZUnOI4sxT-101" value="" style="line;strokeWidth=1;fillColor=none;align=left;verticalAlign=middle;spacingTop=-1;spacingLeft=3;spacingRight=3;rotatable=0;labelPosition=right;points=[];portConstraint=eastwest;strokeColor=inherit;" parent="_ccRFipnc-8ZUnOI4sxT-100" vertex="1">
          <mxGeometry y="26" width="320" height="8" as="geometry" />
        </mxCell>
        <mxCell id="_ccRFipnc-8ZUnOI4sxT-102" value="+ SLEInputData()&lt;br&gt;+ ClearData()&lt;br&gt;+ SetEquationsCount(eqsCount: std::size_t)&lt;br&gt;+ GetEquationsCount(): std::optional&amp;lt;std::size_t&amp;gt;&lt;br&gt;+ IsEquationsCountSetted(): bool&lt;br&gt;+ SetVariablesCoefficients(a: auto&amp;amp;&amp;amp;)&lt;br&gt;+ SetFreeCoefficients(b: auto&amp;amp;&amp;amp;)&lt;br&gt;+ GetVariablesCoefficientsRef(): std::optional&amp;lt;std::reference_wrapper&amp;lt;Matrix&amp;gt;&amp;gt;&lt;br&gt;+ GetVariablesCoefficientsRef(): std::optional&amp;lt;std::reference_wrapper&amp;lt;const Matrix&amp;gt;&amp;gt;&lt;br&gt;+ GetFreeCoefficientsRef(): std::optional&amp;lt;std::reference_wrapper&amp;lt;Vector&amp;gt;&amp;gt;&lt;br&gt;+ GetFreeCoefficientsRef(): std::optional&amp;lt;std::reference_wrapper&amp;lt;const Vector&amp;gt;&amp;gt;&lt;br&gt;+ ConfirmData()&lt;br&gt;+ bool IsDataConfirmed()&lt;div&gt;&lt;br/&gt;&lt;/div&gt;" style="text;strokeColor=none;fillColor=none;align=left;verticalAlign=top;spacingLeft=4;spacingRight=4;overflow=hidden;rotatable=0;points=[[0,0.5],[1,0.5]];portConstraint=eastwest;whiteSpace=wrap;html=1;" parent="_ccRFipnc-8ZUnOI4sxT-100" vertex="1">
          <mxGeometry y="34" width="320" height="266" as="geometry" />
        </mxCell>
        <mxCell id="_ccRFipnc-8ZUnOI4sxT-103" value="" style="endArrow=diamondThin;endFill=1;endSize=24;html=1;rounded=0;" parent="1" source="_ccRFipnc-8ZUnOI4sxT-102" target="_ccRFipnc-8ZUnOI4sxT-46" edge="1">
          <mxGeometry width="160" relative="1" as="geometry">
            <mxPoint x="590" y="-565" as="sourcePoint" />
            <mxPoint x="450" y="-565" as="targetPoint" />
          </mxGeometry>
        </mxCell>
        <mxCell id="_ccRFipnc-8ZUnOI4sxT-104" value="&lt;div&gt;&lt;i&gt;&amp;lt;&amp;lt;enumeration&amp;gt;&amp;gt;&lt;/i&gt;&lt;br&gt;&lt;/div&gt;&lt;div&gt;&lt;b&gt;SLESolvingStatus&lt;/b&gt;&lt;/div&gt;" style="swimlane;fontStyle=0;childLayout=stackLayout;horizontal=1;startSize=50;fillColor=none;horizontalStack=0;resizeParent=1;resizeParentMax=0;resizeLast=0;collapsible=1;marginBottom=0;whiteSpace=wrap;html=1;" parent="1" vertex="1">
          <mxGeometry x="1515" y="-200" width="170" height="120" as="geometry">
            <mxRectangle x="400" y="40" width="130" height="50" as="alternateBounds" />
          </mxGeometry>
        </mxCell>
        <mxCell id="_ccRFipnc-8ZUnOI4sxT-105" value="&lt;div&gt;Unsolved&lt;/div&gt;&lt;div&gt;SolvedSuccessfully&lt;/div&gt;&lt;div&gt;SolvedFailful&lt;br&gt;&lt;/div&gt;" style="text;strokeColor=none;fillColor=none;align=left;verticalAlign=top;spacingLeft=4;spacingRight=4;overflow=hidden;rotatable=0;points=[[0,0.5],[1,0.5]];portConstraint=eastwest;whiteSpace=wrap;html=1;" parent="_ccRFipnc-8ZUnOI4sxT-104" vertex="1">
          <mxGeometry y="50" width="170" height="70" as="geometry" />
        </mxCell>
        <mxCell id="_ccRFipnc-8ZUnOI4sxT-106" value="SLESolveData" style="swimlane;fontStyle=1;align=center;verticalAlign=top;childLayout=stackLayout;horizontal=1;startSize=26;horizontalStack=0;resizeParent=1;resizeParentMax=0;resizeLast=0;collapsible=1;marginBottom=0;whiteSpace=wrap;html=1;" parent="1" vertex="1">
          <mxGeometry x="1440" y="-424" width="320" height="170" as="geometry" />
        </mxCell>
        <mxCell id="_ccRFipnc-8ZUnOI4sxT-107" value="" style="line;strokeWidth=1;fillColor=none;align=left;verticalAlign=middle;spacingTop=-1;spacingLeft=3;spacingRight=3;rotatable=0;labelPosition=right;points=[];portConstraint=eastwest;strokeColor=inherit;" parent="_ccRFipnc-8ZUnOI4sxT-106" vertex="1">
          <mxGeometry y="26" width="320" height="8" as="geometry" />
        </mxCell>
        <mxCell id="_ccRFipnc-8ZUnOI4sxT-108" value="SLESolveData()&lt;br&gt;SetVarsSolve(x: auto&amp;amp;&amp;amp;)&lt;br&gt;GetSolveRef(): std::optional&amp;lt;std::reference_wrapper&amp;lt;Vector&amp;gt;&amp;gt;&lt;br&gt;GetSolveRef(): std::optional&amp;lt;std::reference_wrapper&amp;lt;const Vector&amp;gt;&amp;gt;&lt;br&gt;SetSolvingStatus(sleSolvingStatus: SLESolvingStatus)&lt;br&gt;GetSolvingStatus(): SLESolvingStatus" style="text;strokeColor=none;fillColor=none;align=left;verticalAlign=top;spacingLeft=4;spacingRight=4;overflow=hidden;rotatable=0;points=[[0,0.5],[1,0.5]];portConstraint=eastwest;whiteSpace=wrap;html=1;" parent="_ccRFipnc-8ZUnOI4sxT-106" vertex="1">
          <mxGeometry y="34" width="320" height="136" as="geometry" />
        </mxCell>
        <mxCell id="_ccRFipnc-8ZUnOI4sxT-109" value="" style="endArrow=diamondThin;endFill=1;endSize=24;html=1;rounded=0;" parent="1" source="_ccRFipnc-8ZUnOI4sxT-106" target="_ccRFipnc-8ZUnOI4sxT-46" edge="1">
          <mxGeometry width="160" relative="1" as="geometry">
            <mxPoint x="590" y="-702" as="sourcePoint" />
            <mxPoint x="725" y="-625" as="targetPoint" />
          </mxGeometry>
        </mxCell>
        <mxCell id="_ccRFipnc-8ZUnOI4sxT-110" value="" style="endArrow=open;endFill=1;endSize=12;html=1;rounded=0;" parent="1" source="_ccRFipnc-8ZUnOI4sxT-106" target="_ccRFipnc-8ZUnOI4sxT-104" edge="1">
          <mxGeometry width="160" relative="1" as="geometry">
            <mxPoint x="880" y="-1065" as="sourcePoint" />
            <mxPoint x="850" y="-1063" as="targetPoint" />
          </mxGeometry>
        </mxCell>
        <mxCell id="CZMbjyIImbtfUG7fevTx-1" value="" style="endArrow=diamondThin;endFill=0;endSize=24;html=1;rounded=0;" edge="1" parent="1" source="_ccRFipnc-8ZUnOI4sxT-106" target="_ccRFipnc-8ZUnOI4sxT-58">
          <mxGeometry width="160" relative="1" as="geometry">
            <mxPoint x="1330" y="-410" as="sourcePoint" />
            <mxPoint x="1490" y="-410" as="targetPoint" />
          </mxGeometry>
        </mxCell>
        <mxCell id="CZMbjyIImbtfUG7fevTx-2" value="" style="endArrow=diamondThin;endFill=0;endSize=24;html=1;rounded=0;" edge="1" parent="1" source="_ccRFipnc-8ZUnOI4sxT-106" target="_ccRFipnc-8ZUnOI4sxT-54">
          <mxGeometry width="160" relative="1" as="geometry">
            <mxPoint x="1670" y="-240" as="sourcePoint" />
            <mxPoint x="1290" y="-192" as="targetPoint" />
          </mxGeometry>
        </mxCell>
        <mxCell id="CZMbjyIImbtfUG7fevTx-3" value="" style="endArrow=diamondThin;endFill=0;endSize=24;html=1;rounded=0;" edge="1" parent="1" source="_ccRFipnc-8ZUnOI4sxT-54" target="_ccRFipnc-8ZUnOI4sxT-58">
          <mxGeometry width="160" relative="1" as="geometry">
            <mxPoint x="1670" y="-270" as="sourcePoint" />
            <mxPoint x="1150" y="-301" as="targetPoint" />
          </mxGeometry>
        </mxCell>
        <mxCell id="CZMbjyIImbtfUG7fevTx-5" value="" style="endArrow=diamondThin;endFill=0;endSize=24;html=1;rounded=0;" edge="1" parent="1" source="_ccRFipnc-8ZUnOI4sxT-100" target="_ccRFipnc-8ZUnOI4sxT-50">
          <mxGeometry width="160" relative="1" as="geometry">
            <mxPoint x="1670" y="-270" as="sourcePoint" />
            <mxPoint x="1150" y="-301" as="targetPoint" />
          </mxGeometry>
        </mxCell>
        <mxCell id="CZMbjyIImbtfUG7fevTx-6" value="" style="endArrow=diamondThin;endFill=0;endSize=24;html=1;rounded=0;" edge="1" parent="1" source="_ccRFipnc-8ZUnOI4sxT-102" target="_ccRFipnc-8ZUnOI4sxT-54">
          <mxGeometry width="160" relative="1" as="geometry">
            <mxPoint x="1660" y="-545" as="sourcePoint" />
            <mxPoint x="1070" y="-471" as="targetPoint" />
          </mxGeometry>
        </mxCell>
        <mxCell id="CZMbjyIImbtfUG7fevTx-7" value="" style="endArrow=diamondThin;endFill=0;endSize=24;html=1;rounded=0;" edge="1" parent="1" source="_ccRFipnc-8ZUnOI4sxT-102" target="_ccRFipnc-8ZUnOI4sxT-58">
          <mxGeometry width="160" relative="1" as="geometry">
            <mxPoint x="1540" y="-525" as="sourcePoint" />
            <mxPoint x="1097" y="-366" as="targetPoint" />
            <Array as="points">
              <mxPoint x="1270" y="-310" />
            </Array>
          </mxGeometry>
        </mxCell>
        <mxCell id="CZMbjyIImbtfUG7fevTx-8" value="GUIUtilityFuncs" style="swimlane;fontStyle=1;align=center;verticalAlign=top;childLayout=stackLayout;horizontal=1;startSize=26;horizontalStack=0;resizeParent=1;resizeParentMax=0;resizeLast=0;collapsible=1;marginBottom=0;whiteSpace=wrap;html=1;" vertex="1" parent="1">
          <mxGeometry x="870" y="-870" width="430" height="140" as="geometry" />
        </mxCell>
        <mxCell id="CZMbjyIImbtfUG7fevTx-9" value="" style="line;strokeWidth=1;fillColor=none;align=left;verticalAlign=middle;spacingTop=-1;spacingLeft=3;spacingRight=3;rotatable=0;labelPosition=right;points=[];portConstraint=eastwest;strokeColor=inherit;" vertex="1" parent="CZMbjyIImbtfUG7fevTx-8">
          <mxGeometry y="26" width="430" height="8" as="geometry" />
        </mxCell>
        <mxCell id="CZMbjyIImbtfUG7fevTx-10" value="+ GetCoeffAShortLabel(eqIndex: std::size_t, varIndex: std::size_t): std::string&lt;div&gt;+ GetCoeffAFancyLabel(eqIndex: std::size_t,&amp;nbsp;varIndex: std::size_t): std::string&lt;/div&gt;&lt;div&gt;&lt;div&gt;+ GetCoeffBShortLabel(eqIndex: std::size_t): std::string&lt;/div&gt;&lt;div&gt;+ GetCoeffBFancyLabel(eqIndex: std::size_t): std::string&lt;/div&gt;&lt;div&gt;+ ToShortScientificForm(number: std::size_t): std::string&lt;/div&gt;&lt;div&gt;+ IsDetCloseToZero(det: double): bool&lt;/div&gt;&lt;/div&gt;" style="text;strokeColor=none;fillColor=none;align=left;verticalAlign=top;spacingLeft=4;spacingRight=4;overflow=hidden;rotatable=0;points=[[0,0.5],[1,0.5]];portConstraint=eastwest;whiteSpace=wrap;html=1;" vertex="1" parent="CZMbjyIImbtfUG7fevTx-8">
          <mxGeometry y="34" width="430" height="106" as="geometry" />
        </mxCell>
        <mxCell id="CZMbjyIImbtfUG7fevTx-11" value="" style="endArrow=open;endFill=1;endSize=12;html=1;rounded=0;exitX=0.832;exitY=-0.03;exitDx=0;exitDy=0;exitPerimeter=0;entryX=0.908;entryY=1;entryDx=0;entryDy=0;entryPerimeter=0;" edge="1" parent="1" source="_ccRFipnc-8ZUnOI4sxT-58" target="CZMbjyIImbtfUG7fevTx-10">
          <mxGeometry width="160" relative="1" as="geometry">
            <mxPoint x="1608" y="-244" as="sourcePoint" />
            <mxPoint x="1180" y="-510" as="targetPoint" />
            <Array as="points">
              <mxPoint x="1260" y="-400" />
            </Array>
          </mxGeometry>
        </mxCell>
        <mxCell id="CZMbjyIImbtfUG7fevTx-12" value="" style="endArrow=open;endFill=1;endSize=12;html=1;rounded=0;exitX=0.912;exitY=0.022;exitDx=0;exitDy=0;exitPerimeter=0;entryX=0.762;entryY=1.012;entryDx=0;entryDy=0;entryPerimeter=0;" edge="1" parent="1" source="_ccRFipnc-8ZUnOI4sxT-54" target="CZMbjyIImbtfUG7fevTx-10">
          <mxGeometry width="160" relative="1" as="geometry">
            <mxPoint x="1209" y="-218" as="sourcePoint" />
            <mxPoint x="1253" y="-660" as="targetPoint" />
            <Array as="points">
              <mxPoint x="1200" y="-500" />
            </Array>
          </mxGeometry>
        </mxCell>
        <mxCell id="CZMbjyIImbtfUG7fevTx-13" value="" style="endArrow=open;endFill=1;endSize=12;html=1;rounded=0;exitX=1;exitY=0.25;exitDx=0;exitDy=0;entryX=0.58;entryY=0.994;entryDx=0;entryDy=0;entryPerimeter=0;" edge="1" parent="1" source="_ccRFipnc-8ZUnOI4sxT-46" target="CZMbjyIImbtfUG7fevTx-10">
          <mxGeometry width="160" relative="1" as="geometry">
            <mxPoint x="1115" y="-364" as="sourcePoint" />
            <mxPoint x="1195" y="-658" as="targetPoint" />
            <Array as="points">
              <mxPoint x="1119" y="-640" />
            </Array>
          </mxGeometry>
        </mxCell>
        <mxCell id="CZMbjyIImbtfUG7fevTx-14" value="Convert" style="swimlane;fontStyle=1;align=center;verticalAlign=top;childLayout=stackLayout;horizontal=1;startSize=26;horizontalStack=0;resizeParent=1;resizeParentMax=0;resizeLast=0;collapsible=1;marginBottom=0;whiteSpace=wrap;html=1;" vertex="1" parent="1">
          <mxGeometry x="440" y="-890" width="400" height="90" as="geometry" />
        </mxCell>
        <mxCell id="CZMbjyIImbtfUG7fevTx-15" value="" style="line;strokeWidth=1;fillColor=none;align=left;verticalAlign=middle;spacingTop=-1;spacingLeft=3;spacingRight=3;rotatable=0;labelPosition=right;points=[];portConstraint=eastwest;strokeColor=inherit;" vertex="1" parent="CZMbjyIImbtfUG7fevTx-14">
          <mxGeometry y="26" width="400" height="8" as="geometry" />
        </mxCell>
        <mxCell id="CZMbjyIImbtfUG7fevTx-16" value="&lt;div&gt;+ ToInteger(mayFormattedInt: std::string): std::optional&amp;lt;std::ptrdiff_t&amp;gt;&lt;/div&gt;&lt;div&gt;+ ToNumber(mayFormattedNumber: std::string): std::optional&amp;lt;double&amp;gt;&lt;/div&gt;&lt;div&gt;+ NumberToString(value: double): std::string&lt;/div&gt;" style="text;strokeColor=none;fillColor=none;align=left;verticalAlign=top;spacingLeft=4;spacingRight=4;overflow=hidden;rotatable=0;points=[[0,0.5],[1,0.5]];portConstraint=eastwest;whiteSpace=wrap;html=1;" vertex="1" parent="CZMbjyIImbtfUG7fevTx-14">
          <mxGeometry y="34" width="400" height="56" as="geometry" />
        </mxCell>
        <mxCell id="CZMbjyIImbtfUG7fevTx-20" value="Time" style="swimlane;fontStyle=1;align=center;verticalAlign=top;childLayout=stackLayout;horizontal=1;startSize=26;horizontalStack=0;resizeParent=1;resizeParentMax=0;resizeLast=0;collapsible=1;marginBottom=0;whiteSpace=wrap;html=1;" vertex="1" parent="1">
          <mxGeometry x="440" y="-760" width="400" height="80" as="geometry" />
        </mxCell>
        <mxCell id="CZMbjyIImbtfUG7fevTx-21" value="" style="line;strokeWidth=1;fillColor=none;align=left;verticalAlign=middle;spacingTop=-1;spacingLeft=3;spacingRight=3;rotatable=0;labelPosition=right;points=[];portConstraint=eastwest;strokeColor=inherit;" vertex="1" parent="CZMbjyIImbtfUG7fevTx-20">
          <mxGeometry y="26" width="400" height="8" as="geometry" />
        </mxCell>
        <mxCell id="CZMbjyIImbtfUG7fevTx-22" value="&lt;div&gt;+ GetTimeSeconds(): std::ptrdiff_t&lt;/div&gt;&lt;div&gt;+ GetCurrentFormalTime(): std::string&lt;/div&gt;" style="text;strokeColor=none;fillColor=none;align=left;verticalAlign=top;spacingLeft=4;spacingRight=4;overflow=hidden;rotatable=0;points=[[0,0.5],[1,0.5]];portConstraint=eastwest;whiteSpace=wrap;html=1;" vertex="1" parent="CZMbjyIImbtfUG7fevTx-20">
          <mxGeometry y="34" width="400" height="46" as="geometry" />
        </mxCell>
        <mxCell id="CZMbjyIImbtfUG7fevTx-23" value="" style="endArrow=open;endFill=1;endSize=12;html=1;rounded=0;" edge="1" parent="1" source="_ccRFipnc-8ZUnOI4sxT-50" target="CZMbjyIImbtfUG7fevTx-20">
          <mxGeometry width="160" relative="1" as="geometry">
            <mxPoint x="1070" y="-600" as="sourcePoint" />
            <mxPoint x="1122" y="-711" as="targetPoint" />
            <Array as="points">
              <mxPoint x="530" y="-490" />
              <mxPoint x="510" y="-640" />
            </Array>
          </mxGeometry>
        </mxCell>
        <mxCell id="CZMbjyIImbtfUG7fevTx-24" value="" style="endArrow=open;endFill=1;endSize=12;html=1;rounded=0;exitX=0.306;exitY=0.028;exitDx=0;exitDy=0;exitPerimeter=0;" edge="1" parent="1" source="_ccRFipnc-8ZUnOI4sxT-58" target="CZMbjyIImbtfUG7fevTx-20">
          <mxGeometry width="160" relative="1" as="geometry">
            <mxPoint x="775" y="-625" as="sourcePoint" />
            <mxPoint x="714" y="-680" as="targetPoint" />
            <Array as="points">
              <mxPoint x="560" y="-290" />
              <mxPoint x="540" y="-620" />
            </Array>
          </mxGeometry>
        </mxCell>
        <mxCell id="CZMbjyIImbtfUG7fevTx-26" value="" style="endArrow=open;endFill=1;endSize=12;html=1;rounded=0;" edge="1" parent="1" source="_ccRFipnc-8ZUnOI4sxT-46" target="CZMbjyIImbtfUG7fevTx-14">
          <mxGeometry width="160" relative="1" as="geometry">
            <mxPoint x="1070" y="-600" as="sourcePoint" />
            <mxPoint x="1122" y="-711" as="targetPoint" />
            <Array as="points">
              <mxPoint x="400" y="-640" />
              <mxPoint x="380" y="-840" />
            </Array>
          </mxGeometry>
        </mxCell>
        <mxCell id="CZMbjyIImbtfUG7fevTx-27" value="" style="endArrow=open;endFill=1;endSize=12;html=1;rounded=0;" edge="1" parent="1" source="_ccRFipnc-8ZUnOI4sxT-54" target="CZMbjyIImbtfUG7fevTx-14">
          <mxGeometry width="160" relative="1" as="geometry">
            <mxPoint x="590" y="-606" as="sourcePoint" />
            <mxPoint x="470" y="-834" as="targetPoint" />
            <Array as="points">
              <mxPoint x="450" y="-400" />
              <mxPoint x="400" y="-800" />
            </Array>
          </mxGeometry>
        </mxCell>
        <mxCell id="CZMbjyIImbtfUG7fevTx-28" value="Math" style="swimlane;fontStyle=1;align=center;verticalAlign=top;childLayout=stackLayout;horizontal=1;startSize=26;horizontalStack=0;resizeParent=1;resizeParentMax=0;resizeLast=0;collapsible=1;marginBottom=0;whiteSpace=wrap;html=1;" vertex="1" parent="1">
          <mxGeometry x="90" y="-1000" width="400" height="90" as="geometry" />
        </mxCell>
        <mxCell id="CZMbjyIImbtfUG7fevTx-29" value="" style="line;strokeWidth=1;fillColor=none;align=left;verticalAlign=middle;spacingTop=-1;spacingLeft=3;spacingRight=3;rotatable=0;labelPosition=right;points=[];portConstraint=eastwest;strokeColor=inherit;" vertex="1" parent="CZMbjyIImbtfUG7fevTx-28">
          <mxGeometry y="26" width="400" height="8" as="geometry" />
        </mxCell>
        <mxCell id="CZMbjyIImbtfUG7fevTx-30" value="&lt;div&gt;+ PutNumberToBounds(value: double, from: double, to: double): double&lt;/div&gt;&lt;div&gt;+ Logarithm(poweredValue: double, base: double): double&lt;/div&gt;&lt;div&gt;+ FloorWithPrecision(number: double, maxDigits: std::size_t): double&lt;br&gt;&lt;/div&gt;" style="text;strokeColor=none;fillColor=none;align=left;verticalAlign=top;spacingLeft=4;spacingRight=4;overflow=hidden;rotatable=0;points=[[0,0.5],[1,0.5]];portConstraint=eastwest;whiteSpace=wrap;html=1;" vertex="1" parent="CZMbjyIImbtfUG7fevTx-28">
          <mxGeometry y="34" width="400" height="56" as="geometry" />
        </mxCell>
        <mxCell id="CZMbjyIImbtfUG7fevTx-31" value="" style="endArrow=open;endFill=1;endSize=12;html=1;rounded=0;" edge="1" parent="1" source="_ccRFipnc-8ZUnOI4sxT-54" target="CZMbjyIImbtfUG7fevTx-28">
          <mxGeometry width="160" relative="1" as="geometry">
            <mxPoint x="590" y="-606" as="sourcePoint" />
            <mxPoint x="310" y="-850" as="targetPoint" />
            <Array as="points">
              <mxPoint x="470" y="-460" />
              <mxPoint x="320" y="-690" />
            </Array>
          </mxGeometry>
        </mxCell>
        <mxCell id="CZMbjyIImbtfUG7fevTx-32" value="" style="endArrow=open;endFill=1;endSize=12;html=1;rounded=0;entryX=0.292;entryY=0.996;entryDx=0;entryDy=0;entryPerimeter=0;" edge="1" parent="1" source="_ccRFipnc-8ZUnOI4sxT-50" target="CZMbjyIImbtfUG7fevTx-30">
          <mxGeometry width="160" relative="1" as="geometry">
            <mxPoint x="551" y="-573" as="sourcePoint" />
            <mxPoint x="80" y="-1117" as="targetPoint" />
            <Array as="points">
              <mxPoint x="490" y="-510" />
              <mxPoint x="230" y="-750" />
            </Array>
          </mxGeometry>
        </mxCell>
        <mxCell id="CZMbjyIImbtfUG7fevTx-33" value="" style="endArrow=open;endFill=1;endSize=12;html=1;rounded=0;" edge="1" parent="1" source="_ccRFipnc-8ZUnOI4sxT-58" target="_ccRFipnc-8ZUnOI4sxT-18">
          <mxGeometry width="160" relative="1" as="geometry">
            <mxPoint x="1170" y="-225" as="sourcePoint" />
            <mxPoint x="1340" y="-780" as="targetPoint" />
            <Array as="points">
              <mxPoint x="1310" y="-410" />
              <mxPoint x="1320" y="-880" />
            </Array>
          </mxGeometry>
        </mxCell>
        <mxCell id="CZMbjyIImbtfUG7fevTx-34" value="" style="endArrow=open;endFill=1;endSize=12;html=1;rounded=0;exitX=0.798;exitY=0.028;exitDx=0;exitDy=0;exitPerimeter=0;" edge="1" parent="1" source="_ccRFipnc-8ZUnOI4sxT-58" target="_ccRFipnc-8ZUnOI4sxT-96">
          <mxGeometry width="160" relative="1" as="geometry">
            <mxPoint x="1209" y="-218" as="sourcePoint" />
            <mxPoint x="1270" y="-720" as="targetPoint" />
            <Array as="points">
              <mxPoint x="1220" y="-390" />
              <mxPoint x="1370" y="-780" />
              <mxPoint x="1550" y="-780" />
            </Array>
          </mxGeometry>
        </mxCell>
      </root>
    </mxGraphModel>
  </diagram>
</mxfile>
